<svg width="36" height="43" viewBox="0 0 36 43" fill="none" xmlns="http://www.w3.org/2000/svg">
<path d="M11.7665 37.9957C13.1793 37.9957 14.3246 36.8504 14.3246 35.4376C14.3246 34.0248 13.1793 32.8795 11.7665 32.8795C10.3537 32.8795 9.20837 34.0248 9.20837 35.4376C9.20837 36.8504 10.3537 37.9957 11.7665 37.9957Z" stroke="#7756D2" stroke-width="2.29823" stroke-linecap="round" stroke-linejoin="round"/>
<path d="M24.044 37.9957C25.4568 37.9957 26.6021 36.8504 26.6021 35.4376C26.6021 34.0248 25.4568 32.8795 24.044 32.8795C22.6311 32.8795 21.4858 34.0248 21.4858 35.4376C21.4858 36.8504 22.6311 37.9957 24.044 37.9957Z" stroke="#7756D2" stroke-width="2.29823" stroke-linecap="round" stroke-linejoin="round"/>
<path d="M18.6852 0.840454L20.5103 8.69236L28.4248 10.503L20.5103 12.3135L18.6852 20.1655L16.8602 12.3135L8.94568 10.503L16.8602 8.69236L18.6852 0.840454Z" fill="#ED6DB8"/>
<path d="M24.0461 31.7037H11.661C11.1817 31.7036 10.7177 31.5367 10.3498 31.232C9.98188 30.9273 9.73343 30.5041 9.64776 30.0363L6.23268 11.4008H3.06958" stroke="#7756D2" stroke-width="2.29823" stroke-linecap="round" stroke-linejoin="round"/>
<path d="M9.0268 26.6197H25.0853C25.5646 26.6197 26.0286 26.4527 26.3965 26.148C26.7645 25.8433 27.0129 25.4202 27.0986 24.9524L28.6539 16.4683H7.16577" stroke="#7756D2" stroke-width="2.29823" stroke-linecap="round" stroke-linejoin="round"/>
<path d="M28.4248 9.42932L29.8443 15.5364L36 16.9446L29.8443 18.3528L28.4248 24.4599L27.0054 18.3528L20.8496 16.9446L27.0054 15.5364L28.4248 9.42932Z" fill="#ED6DB8"/>
</svg>
