<svg width="47" height="48" viewBox="0 0 47 48" fill="none" xmlns="http://www.w3.org/2000/svg">
<path d="M23.4968 31.082C27.5527 31.082 30.8406 27.7941 30.8406 23.7383C30.8406 19.6824 27.5527 16.3945 23.4968 16.3945C19.441 16.3945 16.1531 19.6824 16.1531 23.7383C16.1531 27.7941 19.441 31.082 23.4968 31.082Z" stroke="#FCD9EC" stroke-width="2.9375" stroke-miterlimit="10"/>
<path d="M32.3059 6.11035H14.6809C9.8139 6.11035 5.86841 10.0558 5.86841 14.9229V32.5479C5.86841 37.4149 9.8139 41.3604 14.6809 41.3604H32.3059C37.1729 41.3604 41.1184 37.4149 41.1184 32.5479V14.9229C41.1184 10.0558 37.1729 6.11035 32.3059 6.11035Z" stroke="#FCD9EC" stroke-width="2.9375" stroke-linecap="round" stroke-linejoin="round"/>
<path d="M33.042 12.0801C34.208 12.0801 35.1533 13.0254 35.1533 14.1914C35.1533 15.3575 34.208 16.3027 33.042 16.3027C31.8759 16.3027 30.9307 15.3575 30.9307 14.1914C30.9307 13.0254 31.8759 12.0801 33.042 12.0801Z" fill="#FCD9EC" stroke="#FCD9EC" stroke-width="0.183594"/>
</svg>
