<svg width="47" height="48" viewBox="0 0 47 48" fill="none" xmlns="http://www.w3.org/2000/svg">
<g clip-path="url(#clip0_46_387)">
<path d="M13.2188 19.3257C13.2188 17.7675 13.8377 16.2732 14.9395 15.1714C16.0413 14.0697 17.5356 13.4507 19.0938 13.4507L22.0312 19.3257L19.7694 22.7167C20.6666 24.8606 22.3714 26.5653 24.5153 27.4626L27.9062 25.2007L33.7812 28.1382C33.7812 29.6963 33.1623 31.1907 32.0605 32.2924C30.9587 33.3942 29.4644 34.0132 27.9062 34.0132C24.0109 34.0132 20.2751 32.4658 17.5206 29.7113C14.7662 26.9569 13.2188 23.2211 13.2188 19.3257Z" stroke="#FCD9EC" stroke-width="2.9375" stroke-linecap="round" stroke-linejoin="round"/>
<path d="M14.6747 38.9902C18.3769 41.1329 22.732 41.8561 26.9281 41.0249C31.1241 40.1937 34.8747 37.8649 37.4805 34.4727C40.0863 31.0804 41.3695 26.8563 41.0909 22.5878C40.8122 18.3193 38.9907 14.2978 35.966 11.2731C32.9413 8.2484 28.9199 6.42693 24.6514 6.14829C20.3829 5.86965 16.1587 7.15286 12.7665 9.75867C9.37424 12.3645 7.04543 16.115 6.21423 20.3111C5.38304 24.5071 6.10621 28.8622 8.2489 32.5645L5.95215 39.4217C5.86584 39.6805 5.85332 39.9582 5.91598 40.2237C5.97863 40.4892 6.114 40.732 6.3069 40.9249C6.49979 41.1178 6.7426 41.2532 7.00811 41.3158C7.27362 41.3785 7.55133 41.366 7.81012 41.2797L14.6747 38.9902Z" stroke="#FCD9EC" stroke-width="2.9375" stroke-linecap="round" stroke-linejoin="round"/>
</g>
<defs>
<clipPath id="clip0_46_387">
<rect width="47" height="47" fill="white" transform="translate(0 0.231934)"/>
</clipPath>
</defs>
</svg>
